<svg width="37" height="37" viewBox="0 0 37 37" fill="none" xmlns="http://www.w3.org/2000/svg">
<mask id="mask0_1_1157" style="mask-type:luminance" maskUnits="userSpaceOnUse" x="0" y="0" width="37" height="37">
<path d="M37 0H0V37H37V0Z" fill="white"/>
</mask>
<g mask="url(#mask0_1_1157)">
<path d="M36.9131 9.36212C36.8507 11.9069 35.7803 14.3227 33.9371 16.0783C32.0939 17.8339 29.6289 18.7856 27.0841 18.7241C26.4467 18.7241 25.8107 18.6652 25.1841 18.5481C24.9117 18.4764 24.6307 18.4427 24.3491 18.4481C24.0584 18.5361 23.7811 18.6637 23.5251 18.8271C22.2521 19.5014 20.7894 19.7278 19.3721 19.4701C19.9124 18.8034 20.279 18.0132 20.4391 17.1701C20.4724 16.9142 20.4433 16.6541 20.3544 16.4119C20.2654 16.1697 20.1191 15.9526 19.9281 15.7791C18.2239 14.0785 17.2631 11.7717 17.2561 9.36412C17.318 6.81938 18.3879 4.40339 20.2307 2.64739C22.0736 0.891397 24.5383 -0.0608229 27.0831 0.000118708C29.6279 -0.0613662 32.0929 0.890341 33.9361 2.64596C35.7793 4.40159 36.8507 6.81738 36.9131 9.36212Z" fill="white"/>
<path d="M21.3921 32.7892C19.1921 29.8822 14.0831 28.1272 10.8061 28.1272C7.52906 28.1272 2.43006 29.8822 0.230059 32.7892C0.0914277 32.9622 0.0110663 33.1747 0.000469194 33.3961C-0.0101279 33.6176 0.0495823 33.8367 0.171059 34.0222C1.00264 35.1772 2.1529 36.0647 3.48106 36.5762C4.07086 36.812 4.702 36.9269 5.33706 36.9142H16.2821C16.9171 36.9272 17.5483 36.8123 18.1381 36.5762C19.4666 36.0645 20.6175 35.1771 21.4501 34.0222C21.5715 33.8367 21.6312 33.6176 21.6206 33.3961C21.6101 33.1747 21.5307 32.9622 21.3921 32.7892Z" fill="#1CEAB9"/>
<path d="M16.2731 17.9401C16.2718 18.6527 16.1298 19.3581 15.8553 20.0157C15.5807 20.6733 15.1789 21.2702 14.6731 21.7721C14.0382 22.4044 13.2577 22.8709 12.4002 23.1308C11.5427 23.3906 10.6345 23.4358 9.75549 23.2622C8.87645 23.0887 8.05353 22.7018 7.35911 22.1356C6.66468 21.5694 6.12004 20.8412 5.77309 20.0151C5.35972 19.0242 5.25157 17.9325 5.46251 16.8797C5.67345 15.827 6.19387 14.8612 6.95709 14.1061C7.98465 13.0911 9.37078 12.522 10.8151 12.522C12.2594 12.522 13.6455 13.0911 14.6731 14.1061C15.1791 14.6079 15.5809 15.2048 15.8555 15.8624C16.1301 16.52 16.272 17.2254 16.2731 17.9381" fill="#1CEAB9"/>
<path d="M27.087 15.0411C26.7407 15.0424 26.4081 14.9063 26.1621 14.6625C25.9161 14.4188 25.7769 14.0874 25.775 13.7411C25.7742 13.5701 25.8073 13.4007 25.8724 13.2427C25.9374 13.0846 26.0332 12.9409 26.154 12.8201C26.2749 12.6992 26.4185 12.6035 26.5766 12.5384C26.7347 12.4734 26.9041 12.4403 27.075 12.4411H27.091C27.4358 12.4411 27.7665 12.578 28.0103 12.8218C28.2541 13.0656 28.391 13.3963 28.391 13.7411C28.391 14.0859 28.2541 14.4165 28.0103 14.6603C27.7665 14.9041 27.4358 15.0411 27.091 15.0411M27.091 11.1261C26.7463 11.1261 26.4156 10.9891 26.1718 10.7453C25.928 10.5015 25.791 10.1709 25.791 9.82608V4.93608C25.791 4.59024 25.9284 4.25856 26.173 4.01401C26.4175 3.76947 26.7492 3.63208 27.095 3.63208C27.4409 3.63208 27.7726 3.76947 28.0171 4.01401C28.2617 4.25856 28.399 4.59024 28.399 4.93608V9.82808C28.399 9.9988 28.3654 10.1678 28.3001 10.3256C28.2348 10.4833 28.139 10.6266 28.0183 10.7473C27.8976 10.868 27.7542 10.9638 27.5965 11.0291C27.4388 11.0945 27.2698 11.1281 27.099 11.1281" fill="#1CEAB9"/>
</g>
</svg>
