<svg width="37" height="37" viewBox="0 0 37 37" fill="none" xmlns="http://www.w3.org/2000/svg">
<mask id="mask0_1_1107" style="mask-type:luminance" maskUnits="userSpaceOnUse" x="0" y="0" width="37" height="37">
<path d="M37 0H0V37H37V0Z" fill="white"/>
</mask>
<g mask="url(#mask0_1_1107)">
<path fill-rule="evenodd" clip-rule="evenodd" d="M25.779 17.2249V27.7629C25.7753 29.013 25.2752 30.2104 24.3888 31.0918C23.5023 31.9732 22.3021 32.4664 21.052 32.4629H18.618V35.4369C18.6168 35.7031 18.5437 35.964 18.4066 36.1921C18.2695 36.4202 18.0733 36.6071 17.8389 36.7331C17.6044 36.859 17.3402 36.9193 17.0743 36.9077C16.8084 36.8961 16.5506 36.8129 16.328 36.6669L9.882 32.4669H4.727C4.1077 32.4686 3.49412 32.3483 2.92135 32.1128C2.34857 31.8773 1.82781 31.5312 1.38883 31.0944C0.949845 30.6575 0.601243 30.1384 0.362942 29.5668C0.124641 28.9952 0.0013114 28.3822 0 27.7629L0 17.2249C0.00370777 15.9749 0.503782 14.7775 1.39024 13.8961C2.2767 13.0147 3.47694 12.5215 4.727 12.5249H21.052C22.3021 12.5215 23.5023 13.0147 24.3888 13.8961C25.2752 14.7775 25.7753 15.9749 25.779 17.2249Z" fill="#1CEAB9"/>
<path fill-rule="evenodd" clip-rule="evenodd" d="M18.462 1.4709e-05H32.77C33.3125 -0.00143176 33.8499 0.103988 34.3517 0.310255C34.8534 0.516522 35.3096 0.819596 35.6943 1.20217C36.0789 1.58475 36.3844 2.03934 36.5933 2.53998C36.8022 3.04063 36.9105 3.57752 36.912 4.12001V13.356C36.9105 13.8985 36.8022 14.4354 36.5933 14.936C36.3844 15.4367 36.0789 15.8913 35.6943 16.2739C35.3096 16.6564 34.8534 16.9595 34.3517 17.1658C33.8499 17.372 33.3125 17.4775 32.77 17.476H28.253L22.604 21.161C22.4086 21.2874 22.1828 21.359 21.9503 21.3684C21.7178 21.3778 21.487 21.3246 21.2821 21.2144C21.0771 21.1041 20.9056 20.9409 20.7852 20.7417C20.6649 20.5425 20.6002 20.3147 20.598 20.082V17.476H18.462C17.3663 17.4789 16.3143 17.0465 15.5373 16.2739C14.7604 15.5013 14.3221 14.4517 14.319 13.356V4.12001C14.3221 3.02431 14.7604 1.97474 15.5373 1.20211C16.3143 0.429491 17.3663 -0.00290684 18.462 1.4709e-05Z" fill="white"/>
<path d="M25.3811 11.22C25.0363 11.22 24.7056 11.0831 24.4618 10.8393C24.218 10.5955 24.0811 10.2648 24.0811 9.92004V9.17604C24.077 8.71734 24.2148 8.26859 24.4756 7.89124C24.7364 7.51388 25.1075 7.22636 25.5381 7.06804C25.6441 7.03039 25.7324 6.95472 25.7858 6.85568C25.8391 6.75665 25.8539 6.64132 25.8271 6.53204C25.8076 6.45299 25.7668 6.38079 25.7092 6.32331C25.6515 6.26583 25.5792 6.22527 25.5001 6.20604C25.421 6.18637 25.3382 6.18804 25.26 6.21089C25.1818 6.23373 25.1111 6.27692 25.0551 6.33604C24.8182 6.58775 24.4913 6.73554 24.1458 6.74715C23.8004 6.75877 23.4643 6.63327 23.2111 6.39804C23.0858 6.28216 22.9848 6.14262 22.9138 5.98748C22.8428 5.83235 22.8032 5.66468 22.7974 5.49417C22.7915 5.32366 22.8195 5.15368 22.8797 4.99403C22.9399 4.83439 23.0311 4.68825 23.1481 4.56404C23.5105 4.17713 23.9672 3.89082 24.4733 3.73308C24.9795 3.57534 25.5179 3.55155 26.0361 3.66404C26.6609 3.79578 27.2285 4.12081 27.6583 4.5931C28.0881 5.06538 28.3584 5.66096 28.4309 6.29543C28.5034 6.9299 28.3743 7.57109 28.062 8.12813C27.7498 8.68517 27.2701 9.12981 26.6911 9.39904V9.92204C26.6911 10.0928 26.6574 10.2618 26.5921 10.4195C26.5268 10.5773 26.431 10.7206 26.3103 10.8413C26.1896 10.962 26.0463 11.0578 25.8886 11.1231C25.7308 11.1884 25.5618 11.222 25.3911 11.222" fill="#1CEAB9"/>
<path d="M25.387 14.9989C25.0407 15.0003 24.708 14.8641 24.462 14.6204C24.216 14.3766 24.0768 14.0452 24.075 13.6989C24.0742 13.528 24.1073 13.3586 24.1723 13.2005C24.2374 13.0424 24.3331 12.8988 24.454 12.7779C24.5748 12.6571 24.7185 12.5613 24.8765 12.4963C25.0346 12.4312 25.204 12.3981 25.375 12.3989H25.391C25.7357 12.3989 26.0664 12.5359 26.3102 12.7797C26.554 13.0235 26.691 13.3542 26.691 13.6989C26.691 14.0437 26.554 14.3744 26.3102 14.6182C26.0664 14.862 25.7357 14.9989 25.391 14.9989" fill="#1CEAB9"/>
</g>
</svg>
