<svg width="37" height="37" viewBox="0 0 37 37" fill="none" xmlns="http://www.w3.org/2000/svg">
<mask id="mask0_1_1095" style="mask-type:luminance" maskUnits="userSpaceOnUse" x="0" y="0" width="37" height="37">
<path d="M37 0H0V37H37V0Z" fill="white"/>
</mask>
<g mask="url(#mask0_1_1095)">
<path d="M13.547 15.1671C13.9155 15.1668 14.2691 15.0213 14.531 14.7621C14.6605 14.6344 14.7633 14.4823 14.8334 14.3146C14.9036 14.1469 14.9397 13.9669 14.9397 13.7851C14.9397 13.6033 14.9036 13.4233 14.8334 13.2555C14.7633 13.0878 14.6605 12.9357 14.531 12.8081C14.2691 12.5488 13.9155 12.4033 13.547 12.4031H8.126C7.75748 12.4033 7.40391 12.5488 7.142 12.8081C7.01275 12.9359 6.91013 13.0882 6.8401 13.256C6.77007 13.4238 6.73402 13.6038 6.73402 13.7856C6.73402 13.9674 6.77007 14.1474 6.8401 14.3152C6.91013 14.483 7.01275 14.6352 7.142 14.7631C7.40349 15.0193 7.75492 15.1629 8.121 15.1631C8.046 15.2551 0 24.6491 0 31.3081C0 36.9081 5.3 36.9081 10.833 36.9081C16.366 36.9081 21.677 36.9081 21.677 31.3081C21.677 24.6521 13.63 15.2651 13.546 15.1671" fill="#1CEAB9"/>
<path d="M36.913 9.34003C36.8465 11.8814 35.774 14.2925 33.9311 16.0438C32.0881 17.795 29.6255 18.7432 27.084 18.68C24.5425 18.7432 22.0799 17.795 20.2369 16.0438C18.394 14.2925 17.3215 11.8814 17.255 9.34003C17.3215 6.79881 18.3939 4.38786 20.2366 2.63666C22.0793 0.885451 24.5417 -0.0628396 27.083 3.34319e-05C29.6245 -0.0631088 32.0871 0.885062 33.9301 2.63629C35.773 4.38753 36.8465 6.79863 36.913 9.34003Z" fill="white"/>
<path d="M27.087 15.0411C26.7407 15.0424 26.4081 14.9063 26.1621 14.6625C25.9161 14.4188 25.7769 14.0874 25.775 13.7411C25.7742 13.5701 25.8073 13.4007 25.8724 13.2427C25.9374 13.0846 26.0332 12.9409 26.154 12.8201C26.2749 12.6992 26.4185 12.6035 26.5766 12.5384C26.7347 12.4734 26.9041 12.4403 27.075 12.4411H27.091C27.4358 12.4411 27.7665 12.578 28.0103 12.8218C28.2541 13.0656 28.391 13.3963 28.391 13.7411C28.391 14.0859 28.2541 14.4165 28.0103 14.6603C27.7665 14.9041 27.4358 15.0411 27.091 15.0411M27.091 11.1261C26.7463 11.1261 26.4156 10.9891 26.1718 10.7453C25.928 10.5015 25.791 10.1709 25.791 9.82608V4.93608C25.791 4.59024 25.9284 4.25856 26.173 4.01401C26.4175 3.76947 26.7492 3.63208 27.095 3.63208C27.4409 3.63208 27.7726 3.76947 28.0171 4.01401C28.2617 4.25856 28.399 4.59024 28.399 4.93608V9.82808C28.399 9.9988 28.3654 10.1678 28.3001 10.3256C28.2348 10.4833 28.139 10.6266 28.0183 10.7473C27.8976 10.868 27.7542 10.9638 27.5965 11.0291C27.4388 11.0945 27.2698 11.1281 27.099 11.1281" fill="#1CEAB9"/>
</g>
</svg>
