<svg width="37" height="38" viewBox="0 0 37 38" fill="none" xmlns="http://www.w3.org/2000/svg">
<path d="M10.81 3.21973V31.7497H13.16V28.0597C13.1758 27.8767 13.1758 27.6927 13.16 27.5097C12.6805 27.055 12.3022 26.5043 12.05 25.8935C11.7977 25.2827 11.677 24.6256 11.6959 23.965C11.7148 23.3045 11.8728 22.6553 12.1595 22.0599C12.4462 21.4645 12.8553 20.9363 13.36 20.5097V14.9697C13.36 14.8796 13.3958 14.7931 13.4596 14.7293C13.5233 14.6655 13.6098 14.6297 13.7 14.6297C13.7902 14.6297 13.8767 14.6655 13.9404 14.7293C14.0042 14.7931 14.04 14.8796 14.04 14.9697V20.0397C14.4533 19.7764 14.9008 19.5712 15.37 19.4297V18.2397C15.3726 16.6784 15.994 15.1818 17.0981 14.0778C18.2021 12.9738 19.6987 12.3524 21.26 12.3497H22.34V3.21973H10.81ZM5.32093e-10 32.4497V33.5697C-9.92137e-06 33.9207 0.138741 34.2575 0.386005 34.5067C0.63327 34.7558 0.968997 34.8971 1.32 34.8997H13.16V32.4997L5.32093e-10 32.4497ZM4.13 3.21973L3.29 4.15973C3.25631 4.19464 3.21591 4.22237 3.17123 4.24128C3.12655 4.26018 3.07851 4.26986 3.03 4.26973C2.97951 4.26492 2.9305 4.25006 2.88584 4.22602C2.84119 4.20197 2.8018 4.16923 2.77 4.12973L2.08 3.21973H5.32093e-10V31.7497H10.13V3.21973H4.13ZM8.83 20.7297C8.83 20.8199 8.79418 20.9064 8.73042 20.9701C8.66665 21.0339 8.58017 21.0697 8.49 21.0697C8.39983 21.0697 8.31335 21.0339 8.24958 20.9701C8.18582 20.9064 8.15 20.8199 8.15 20.7297V14.9697C8.15 14.8796 8.18582 14.7931 8.24958 14.7293C8.31335 14.6655 8.39983 14.6297 8.49 14.6297C8.58017 14.6297 8.66665 14.6655 8.73042 14.7293C8.79418 14.7931 8.83 14.8796 8.83 14.9697V20.7297Z" fill="white"/>
<path d="M22.31 1.33004V2.57004H3.97004C3.92303 2.57009 3.87654 2.5799 3.83351 2.59883C3.79048 2.61776 3.75184 2.64541 3.72004 2.68004L3.06004 3.42004L2.51004 2.71004C2.48018 2.66614 2.43987 2.63035 2.39273 2.60591C2.3456 2.58147 2.29312 2.56914 2.24004 2.57004H3.78825e-05V1.33004C-0.00128174 1.15585 0.031887 0.98313 0.0976321 0.821824C0.163377 0.660518 0.260398 0.51382 0.383103 0.390185C0.505808 0.266551 0.65177 0.168426 0.812575 0.101465C0.97338 0.0345046 1.14585 3.31738e-05 1.32004 3.81724e-05H20.98C21.1551 -0.00129291 21.3286 0.0321997 21.4906 0.098567C21.6525 0.164934 21.7997 0.262851 21.9235 0.386619C22.0472 0.510387 22.1451 0.657534 22.2115 0.819498C22.2779 0.981462 22.3114 1.15501 22.31 1.33004Z" fill="white"/>
<path d="M1.15039 34.8496H5.44039V36.5696C5.44039 36.7208 5.38034 36.8658 5.27344 36.9727C5.16655 37.0796 5.02156 37.1396 4.87039 37.1396H1.72039C1.56922 37.1396 1.42424 37.0796 1.31734 36.9727C1.21044 36.8658 1.15039 36.7208 1.15039 36.5696V34.8496Z" fill="white"/>
<path d="M35.6894 26.0196C35.434 26.2815 35.2397 26.5966 35.1204 26.9424C35.0011 27.2881 34.9598 27.656 34.9994 28.0196C34.9994 30.5196 34.9994 33.0196 34.9994 35.5096C35.0309 35.7249 35.0129 35.9446 34.9468 36.1518C34.8806 36.3591 34.768 36.5486 34.6176 36.7057C34.4672 36.8629 34.2828 36.9837 34.0787 37.0589C33.8745 37.1341 33.6558 37.1617 33.4394 37.1396H16.7394C16.527 37.1632 16.3121 37.1389 16.1103 37.0685C15.9086 36.9981 15.7252 36.8833 15.5737 36.7327C15.4221 36.5821 15.3062 36.3995 15.2345 36.1982C15.1628 35.9969 15.1372 35.7821 15.1594 35.5696C15.1594 33.0696 15.1594 30.5696 15.1594 28.0796C15.199 27.716 15.1576 27.3481 15.0383 27.0024C14.9191 26.6566 14.7248 26.3415 14.4694 26.0796C13.993 25.6367 13.6969 25.0336 13.6379 24.3858C13.5788 23.7381 13.761 23.0913 14.1494 22.5696C14.503 22.0702 14.9888 21.6793 15.5523 21.4408C16.1158 21.2023 16.7347 21.1257 17.3394 21.2196C17.4282 21.229 17.5155 21.2491 17.5994 21.2796C18.1681 21.5449 18.6476 21.9696 18.9796 22.5021C19.3115 23.0347 19.4817 23.6522 19.4694 24.2796C19.4694 25.3796 19.4694 26.4896 19.4694 27.5896H30.6894C30.6894 26.4896 30.6894 25.3796 30.6894 24.2796C30.6783 23.6524 30.849 23.0355 31.1808 22.5031C31.5126 21.9708 31.9914 21.5459 32.5594 21.2796C32.6433 21.2491 32.7306 21.229 32.8194 21.2196C33.424 21.1257 34.0429 21.2023 34.6064 21.4408C35.17 21.6793 35.6558 22.0702 36.0094 22.5696C36.3831 23.0858 36.5566 23.7202 36.4978 24.3548C36.4389 24.9893 36.1517 25.5809 35.6894 26.0196Z" fill="#7DFF7D"/>
<path d="M35.6894 26.0196C35.434 26.2815 35.2397 26.5966 35.1204 26.9424C35.0011 27.2881 34.9598 27.656 34.9994 28.0196C34.9994 30.5196 34.9994 33.0196 34.9994 35.5096C35.0309 35.7249 35.0129 35.9446 34.9468 36.1518C34.8806 36.3591 34.768 36.5486 34.6176 36.7057C34.4672 36.8629 34.2828 36.9837 34.0787 37.0589C33.8745 37.1341 33.6558 37.1617 33.4394 37.1396H16.7394C16.527 37.1632 16.3121 37.1389 16.1103 37.0685C15.9086 36.9981 15.7252 36.8833 15.5737 36.7327C15.4221 36.5821 15.3062 36.3995 15.2345 36.1982C15.1628 35.9969 15.1372 35.7821 15.1594 35.5696C15.1594 33.0696 15.1594 30.5696 15.1594 28.0796C15.199 27.716 15.1576 27.3481 15.0383 27.0024C14.9191 26.6566 14.7248 26.3415 14.4694 26.0796C13.993 25.6367 13.6969 25.0336 13.6379 24.3858C13.5788 23.7381 13.761 23.0913 14.1494 22.5696C14.503 22.0702 14.9888 21.6793 15.5523 21.4408C16.1158 21.2023 16.7347 21.1257 17.3394 21.2196C17.4282 21.229 17.5155 21.2491 17.5994 21.2796C18.1681 21.5449 18.6476 21.9696 18.9796 22.5021C19.3115 23.0347 19.4817 23.6522 19.4694 24.2796C19.4694 25.3796 19.4694 26.4896 19.4694 27.5896H30.6894C30.6894 26.4896 30.6894 25.3796 30.6894 24.2796C30.6783 23.6524 30.849 23.0355 31.1808 22.5031C31.5126 21.9708 31.9914 21.5459 32.5594 21.2796C32.6433 21.2491 32.7306 21.229 32.8194 21.2196C33.424 21.1257 34.0429 21.2023 34.6064 21.4408C35.17 21.6793 35.6558 22.0702 36.0094 22.5696C36.3831 23.0858 36.5566 23.7202 36.4978 24.3548C36.4389 24.9893 36.1517 25.5809 35.6894 26.0196Z" fill="#1CEAB9"/>
<path d="M28.9398 14.3496H21.2298C20.1982 14.3496 19.2087 14.7594 18.4792 15.489C17.7497 16.2185 17.3398 17.2079 17.3398 18.2396V20.2396H17.5098C17.6599 20.2609 17.8074 20.2977 17.9498 20.3496C18.7124 20.689 19.3565 21.2479 19.8 21.955C20.2435 22.6621 20.4663 23.4854 20.4398 24.3196C20.4398 25.0596 20.4398 25.7996 20.4398 26.5396V26.6396H29.6598V26.5696C29.6598 25.8296 29.6598 25.0896 29.6598 24.3496C29.6329 23.505 29.8607 22.6717 30.3137 21.9583C30.7667 21.245 31.4239 20.6844 32.1998 20.3496C32.3365 20.3035 32.4771 20.27 32.6198 20.2496H32.7898V18.2496C32.7925 17.2231 32.3894 16.2371 31.6682 15.5066C30.947 14.776 29.9663 14.3602 28.9398 14.3496ZM29.5698 21.6396C29.5672 21.7307 29.5292 21.8172 29.4639 21.8807C29.3985 21.9441 29.311 21.9796 29.2198 21.9796H28.5798C28.487 21.9796 28.398 22.0165 28.3324 22.0821C28.2667 22.1478 28.2298 22.2368 28.2298 22.3296V23.8096C28.2312 23.8559 28.2231 23.9021 28.206 23.9452C28.1889 23.9883 28.1632 24.0274 28.1304 24.0602C28.0976 24.093 28.0585 24.1187 28.0154 24.1358C27.9723 24.1529 27.9262 24.161 27.8798 24.1596H26.4998C26.407 24.1596 26.318 24.1227 26.2524 24.0571C26.1867 23.9915 26.1498 23.9024 26.1498 23.8096V22.6296C26.1498 22.5368 26.113 22.4478 26.0473 22.3821C25.9817 22.3165 25.8927 22.2796 25.7998 22.2796H25.0598C24.967 22.2796 24.878 22.2427 24.8124 22.1771C24.7467 22.1115 24.7098 22.0224 24.7098 21.9296V20.5696C24.7124 20.4785 24.7505 20.3921 24.8158 20.3286C24.8812 20.2651 24.9687 20.2296 25.0598 20.2296H25.4398C25.5309 20.227 25.6174 20.189 25.6809 20.1236C25.7444 20.0583 25.7799 19.9707 25.7798 19.8796V17.2796C25.7798 17.1868 25.8167 17.0978 25.8824 17.0321C25.948 16.9665 26.037 16.9296 26.1298 16.9296H27.5398C27.5853 16.9296 27.6304 16.9387 27.6723 16.9564C27.7142 16.9741 27.7522 17.0001 27.7839 17.0327C27.8156 17.0653 27.8404 17.104 27.8569 17.1464C27.8734 17.1888 27.8812 17.2341 27.8798 17.2796V18.5696C27.8798 18.6624 27.9167 18.7515 27.9824 18.8171C28.048 18.8827 28.137 18.9196 28.2298 18.9196H29.2298C29.2758 18.9196 29.3213 18.9287 29.3638 18.9463C29.4062 18.9638 29.4448 18.9896 29.4773 19.0221C29.5098 19.0546 29.5356 19.0932 29.5532 19.1357C29.5708 19.1781 29.5798 19.2236 29.5798 19.2696L29.5698 21.6396Z" fill="white"/>
</svg>
