<svg width="37" height="37" viewBox="0 0 37 37" fill="none" xmlns="http://www.w3.org/2000/svg">
<mask id="mask0_1_1061" style="mask-type:luminance" maskUnits="userSpaceOnUse" x="0" y="0" width="37" height="37">
<path d="M37 0H0V37H37V0Z" fill="white"/>
</mask>
<g mask="url(#mask0_1_1061)">
<path d="M29.864 14.7842C31.8366 14.7885 33.7304 14.0103 35.13 12.6202C36.506 11.259 37.2891 9.40967 37.309 7.47424C37.2634 5.46609 36.4295 3.55651 34.9877 2.15804C33.5458 0.759568 31.6116 -0.0155161 29.603 0.000235467H7.851C5.87559 -0.00433093 3.97871 0.773332 2.575 2.16324C1.88382 2.84725 1.33531 3.66167 0.961265 4.55928C0.58722 5.45688 0.395085 6.41981 0.395999 7.39224C0.404468 9.36103 1.19463 11.2458 2.59269 12.6321C3.99075 14.0183 5.8822 14.7925 7.851 14.7842H29.864Z" fill="white"/>
<path d="M12.348 27.0821V14.1901C12.3488 13.976 12.3917 13.7642 12.4744 13.5667C12.557 13.3693 12.6777 13.19 12.8297 13.0392C12.9816 12.8884 13.1617 12.769 13.3598 12.6878C13.5578 12.6066 13.7699 12.5653 13.984 12.5661C14.4161 12.5647 14.8311 12.735 15.1377 13.0396C15.4443 13.3441 15.6174 13.7579 15.619 14.1901V20.1241C15.6198 19.91 15.6627 19.6982 15.7454 19.5007C15.828 19.3033 15.9487 19.124 16.1007 18.9732C16.2526 18.8224 16.4327 18.703 16.6308 18.6218C16.8288 18.5406 17.0409 18.4993 17.255 18.5001H17.288C17.5021 18.4993 17.7142 18.5406 17.9122 18.6218C18.1103 18.703 18.2904 18.8224 18.4423 18.9732C18.5943 19.124 18.715 19.3033 18.7976 19.5007C18.8803 19.6982 18.9232 19.91 18.924 20.1241V21.1301C18.9258 20.6979 19.0992 20.2842 19.406 19.9799C19.7128 19.6755 20.1279 19.5055 20.56 19.5071H20.598C20.8119 19.5063 21.0239 19.5476 21.2218 19.6288C21.4198 19.7099 21.5998 19.8292 21.7516 19.9799C21.9035 20.1306 22.0241 20.3098 22.1067 20.5071C22.1893 20.7045 22.2322 20.9161 22.233 21.1301V22.6301C22.2436 22.2033 22.4205 21.7976 22.7261 21.4995C23.0316 21.2014 23.4416 21.0345 23.8685 21.0345C24.2954 21.0345 24.7054 21.2014 25.0109 21.4995C25.3165 21.7976 25.4934 22.2033 25.504 22.6301V32.1301C25.499 33.4026 24.9888 34.621 24.0857 35.5175C23.1827 36.4141 21.9605 36.9153 20.688 36.9111H17.043C15.7148 36.9116 14.4289 36.4435 13.412 35.5891L12.492 34.8151C11.5234 33.9998 10.6484 33.0795 9.883 32.0711L6.257 27.2911C5.95962 26.8998 5.82344 26.4094 5.87645 25.9208C5.92946 25.4322 6.16763 24.9825 6.542 24.6641C6.87829 24.3774 7.30173 24.2131 7.74334 24.1978C8.18496 24.1826 8.61873 24.3173 8.974 24.5801L12.348 27.0821Z" fill="#1CEAB9"/>
<path d="M26.06 8.68704H11.644C11.4644 8.70284 11.2834 8.6811 11.1127 8.6232C10.9419 8.56529 10.785 8.4725 10.6521 8.35071C10.5191 8.22891 10.4129 8.08079 10.3403 7.91575C10.2676 7.75071 10.2301 7.57236 10.2301 7.39204C10.2301 7.21172 10.2676 7.03337 10.3403 6.86833C10.4129 6.70329 10.5191 6.55517 10.6521 6.43338C10.785 6.31158 10.9419 6.21879 11.1127 6.16089C11.2834 6.10298 11.4644 6.08124 11.644 6.09704H26.06C26.2396 6.08124 26.4206 6.10298 26.5914 6.16089C26.7621 6.21879 26.919 6.31158 27.052 6.43338C27.1849 6.55517 27.2911 6.70329 27.3638 6.86833C27.4364 7.03337 27.4739 7.21172 27.4739 7.39204C27.4739 7.57236 27.4364 7.75071 27.3638 7.91575C27.2911 8.08079 27.1849 8.22891 27.052 8.35071C26.919 8.4725 26.7621 8.56529 26.5914 8.6232C26.4206 8.6811 26.2396 8.70284 26.06 8.68704Z" fill="#1CEAB9"/>
</g>
</svg>
